<mxfile host="app.diagrams.net" modified="2021-07-14T09:16:04.879Z" agent="5.0 (X11; Linux x86_64) AppleWebKit/537.36 (KHTML, like Gecko) Chrome/91.0.4472.114 Safari/537.36" etag="BrUXDKyxf1YsJTd2ygEO" version="14.8.5" type="github">
  <diagram id="DNj5PUtcmAWK6h1JSE8H" name="Page-1">
    <mxGraphModel dx="1182" dy="771" grid="1" gridSize="10" guides="1" tooltips="1" connect="1" arrows="1" fold="1" page="1" pageScale="1" pageWidth="827" pageHeight="1169" math="0" shadow="0">
      <root>
        <mxCell id="0" />
        <mxCell id="1" parent="0" />
        <mxCell id="FG3D0JT4wQypUaJ11V1p-1" value="" style="shape=table;startSize=0;container=1;collapsible=0;childLayout=tableLayout;" vertex="1" parent="1">
          <mxGeometry x="120" y="320" width="120" height="40" as="geometry" />
        </mxCell>
        <mxCell id="FG3D0JT4wQypUaJ11V1p-2" value="" style="shape=partialRectangle;collapsible=0;dropTarget=0;pointerEvents=0;fillColor=none;top=0;left=0;bottom=0;right=0;points=[[0,0.5],[1,0.5]];portConstraint=eastwest;" vertex="1" parent="FG3D0JT4wQypUaJ11V1p-1">
          <mxGeometry width="120" height="40" as="geometry" />
        </mxCell>
        <mxCell id="FG3D0JT4wQypUaJ11V1p-3" value="head" style="shape=partialRectangle;html=1;whiteSpace=wrap;connectable=0;overflow=hidden;fillColor=none;top=0;left=0;bottom=0;right=0;" vertex="1" parent="FG3D0JT4wQypUaJ11V1p-2">
          <mxGeometry width="60" height="40" as="geometry" />
        </mxCell>
        <mxCell id="FG3D0JT4wQypUaJ11V1p-4" value="next" style="shape=partialRectangle;html=1;whiteSpace=wrap;connectable=0;overflow=hidden;fillColor=none;top=0;left=0;bottom=0;right=0;" vertex="1" parent="FG3D0JT4wQypUaJ11V1p-2">
          <mxGeometry x="60" width="60" height="40" as="geometry" />
        </mxCell>
        <mxCell id="FG3D0JT4wQypUaJ11V1p-5" value="" style="shape=table;startSize=0;container=1;collapsible=0;childLayout=tableLayout;" vertex="1" parent="1">
          <mxGeometry x="280" y="320" width="120" height="40" as="geometry" />
        </mxCell>
        <mxCell id="FG3D0JT4wQypUaJ11V1p-6" value="" style="shape=partialRectangle;collapsible=0;dropTarget=0;pointerEvents=0;fillColor=none;top=0;left=0;bottom=0;right=0;points=[[0,0.5],[1,0.5]];portConstraint=eastwest;" vertex="1" parent="FG3D0JT4wQypUaJ11V1p-5">
          <mxGeometry width="120" height="40" as="geometry" />
        </mxCell>
        <mxCell id="FG3D0JT4wQypUaJ11V1p-7" value="L1" style="shape=partialRectangle;html=1;whiteSpace=wrap;connectable=0;overflow=hidden;fillColor=none;top=0;left=0;bottom=0;right=0;" vertex="1" parent="FG3D0JT4wQypUaJ11V1p-6">
          <mxGeometry width="60" height="40" as="geometry" />
        </mxCell>
        <mxCell id="FG3D0JT4wQypUaJ11V1p-8" value="next" style="shape=partialRectangle;html=1;whiteSpace=wrap;connectable=0;overflow=hidden;fillColor=none;top=0;left=0;bottom=0;right=0;" vertex="1" parent="FG3D0JT4wQypUaJ11V1p-6">
          <mxGeometry x="60" width="60" height="40" as="geometry" />
        </mxCell>
        <mxCell id="FG3D0JT4wQypUaJ11V1p-9" value="" style="shape=table;startSize=0;container=1;collapsible=0;childLayout=tableLayout;" vertex="1" parent="1">
          <mxGeometry x="440" y="320" width="120" height="40" as="geometry" />
        </mxCell>
        <mxCell id="FG3D0JT4wQypUaJ11V1p-10" value="" style="shape=partialRectangle;collapsible=0;dropTarget=0;pointerEvents=0;fillColor=none;top=0;left=0;bottom=0;right=0;points=[[0,0.5],[1,0.5]];portConstraint=eastwest;" vertex="1" parent="FG3D0JT4wQypUaJ11V1p-9">
          <mxGeometry width="120" height="40" as="geometry" />
        </mxCell>
        <mxCell id="FG3D0JT4wQypUaJ11V1p-11" value="L2" style="shape=partialRectangle;html=1;whiteSpace=wrap;connectable=0;overflow=hidden;fillColor=none;top=0;left=0;bottom=0;right=0;" vertex="1" parent="FG3D0JT4wQypUaJ11V1p-10">
          <mxGeometry width="60" height="40" as="geometry" />
        </mxCell>
        <mxCell id="FG3D0JT4wQypUaJ11V1p-12" value="next" style="shape=partialRectangle;html=1;whiteSpace=wrap;connectable=0;overflow=hidden;fillColor=none;top=0;left=0;bottom=0;right=0;" vertex="1" parent="FG3D0JT4wQypUaJ11V1p-10">
          <mxGeometry x="60" width="60" height="40" as="geometry" />
        </mxCell>
        <mxCell id="FG3D0JT4wQypUaJ11V1p-13" style="edgeStyle=orthogonalEdgeStyle;rounded=0;orthogonalLoop=1;jettySize=auto;html=1;exitX=1;exitY=0.5;exitDx=0;exitDy=0;" edge="1" parent="1" source="FG3D0JT4wQypUaJ11V1p-2" target="FG3D0JT4wQypUaJ11V1p-6">
          <mxGeometry relative="1" as="geometry" />
        </mxCell>
        <mxCell id="FG3D0JT4wQypUaJ11V1p-14" style="edgeStyle=orthogonalEdgeStyle;rounded=0;orthogonalLoop=1;jettySize=auto;html=1;exitX=1;exitY=0.5;exitDx=0;exitDy=0;entryX=0;entryY=0.5;entryDx=0;entryDy=0;" edge="1" parent="1" source="FG3D0JT4wQypUaJ11V1p-6" target="FG3D0JT4wQypUaJ11V1p-10">
          <mxGeometry relative="1" as="geometry" />
        </mxCell>
        <mxCell id="FG3D0JT4wQypUaJ11V1p-15" value="" style="shape=table;startSize=0;container=1;collapsible=0;childLayout=tableLayout;" vertex="1" parent="1">
          <mxGeometry x="610" y="320" width="120" height="40" as="geometry" />
        </mxCell>
        <mxCell id="FG3D0JT4wQypUaJ11V1p-16" value="" style="shape=partialRectangle;collapsible=0;dropTarget=0;pointerEvents=0;fillColor=none;top=0;left=0;bottom=0;right=0;points=[[0,0.5],[1,0.5]];portConstraint=eastwest;" vertex="1" parent="FG3D0JT4wQypUaJ11V1p-15">
          <mxGeometry width="120" height="40" as="geometry" />
        </mxCell>
        <mxCell id="FG3D0JT4wQypUaJ11V1p-17" value="L3" style="shape=partialRectangle;html=1;whiteSpace=wrap;connectable=0;overflow=hidden;fillColor=none;top=0;left=0;bottom=0;right=0;" vertex="1" parent="FG3D0JT4wQypUaJ11V1p-16">
          <mxGeometry width="60" height="40" as="geometry" />
        </mxCell>
        <mxCell id="FG3D0JT4wQypUaJ11V1p-18" value="next" style="shape=partialRectangle;html=1;whiteSpace=wrap;connectable=0;overflow=hidden;fillColor=none;top=0;left=0;bottom=0;right=0;" vertex="1" parent="FG3D0JT4wQypUaJ11V1p-16">
          <mxGeometry x="60" width="60" height="40" as="geometry" />
        </mxCell>
        <mxCell id="FG3D0JT4wQypUaJ11V1p-19" style="edgeStyle=orthogonalEdgeStyle;rounded=0;orthogonalLoop=1;jettySize=auto;html=1;exitX=1;exitY=0.5;exitDx=0;exitDy=0;" edge="1" parent="1" source="FG3D0JT4wQypUaJ11V1p-16" target="FG3D0JT4wQypUaJ11V1p-20">
          <mxGeometry relative="1" as="geometry">
            <mxPoint x="910" y="340" as="targetPoint" />
          </mxGeometry>
        </mxCell>
        <mxCell id="FG3D0JT4wQypUaJ11V1p-20" value="NULL" style="text;html=1;align=center;verticalAlign=middle;resizable=0;points=[];autosize=1;strokeColor=none;" vertex="1" parent="1">
          <mxGeometry x="760" y="330" width="50" height="20" as="geometry" />
        </mxCell>
        <mxCell id="FG3D0JT4wQypUaJ11V1p-21" style="edgeStyle=orthogonalEdgeStyle;rounded=0;orthogonalLoop=1;jettySize=auto;html=1;exitX=1;exitY=0.5;exitDx=0;exitDy=0;entryX=0;entryY=0.5;entryDx=0;entryDy=0;" edge="1" parent="1" source="FG3D0JT4wQypUaJ11V1p-10" target="FG3D0JT4wQypUaJ11V1p-16">
          <mxGeometry relative="1" as="geometry" />
        </mxCell>
        <mxCell id="FG3D0JT4wQypUaJ11V1p-22" value="删除元素" style="text;html=1;align=center;verticalAlign=middle;resizable=0;points=[];autosize=1;strokeColor=none;" vertex="1" parent="1">
          <mxGeometry x="160" y="440" width="60" height="20" as="geometry" />
        </mxCell>
      </root>
    </mxGraphModel>
  </diagram>
</mxfile>
